<mxfile host="app.diagrams.net" modified="2022-08-09T12:19:32.105Z" agent="5.0 (Windows NT 10.0; Win64; x64) AppleWebKit/537.36 (KHTML, like Gecko) Chrome/104.0.5112.81 Safari/537.36 Edg/104.0.1293.47" etag="y2v2DRrmQxyy8o-syQ2O" version="20.2.3" type="github">
  <diagram id="C5RBs43oDa-KdzZeNtuy" name="Page-1">
    <mxGraphModel dx="1038" dy="613" grid="1" gridSize="10" guides="1" tooltips="1" connect="1" arrows="1" fold="1" page="1" pageScale="1" pageWidth="827" pageHeight="1169" math="0" shadow="0">
      <root>
        <object label="" id="WIyWlLk6GJQsqaUBKTNV-0">
          <mxCell />
        </object>
        <mxCell id="WIyWlLk6GJQsqaUBKTNV-1" parent="WIyWlLk6GJQsqaUBKTNV-0" />
        <mxCell id="9PnTqOo8Al7OSsSd0ex3-10" style="edgeStyle=orthogonalEdgeStyle;rounded=0;orthogonalLoop=1;jettySize=auto;html=1;entryX=0;entryY=0.5;entryDx=0;entryDy=0;" edge="1" parent="WIyWlLk6GJQsqaUBKTNV-1" source="9PnTqOo8Al7OSsSd0ex3-4" target="9PnTqOo8Al7OSsSd0ex3-5">
          <mxGeometry relative="1" as="geometry" />
        </mxCell>
        <mxCell id="9PnTqOo8Al7OSsSd0ex3-4" value="" style="ellipse;whiteSpace=wrap;html=1;fontSize=14;fontStyle=2" vertex="1" parent="WIyWlLk6GJQsqaUBKTNV-1">
          <mxGeometry x="50" y="100" width="120" height="80" as="geometry" />
        </mxCell>
        <mxCell id="9PnTqOo8Al7OSsSd0ex3-11" style="edgeStyle=orthogonalEdgeStyle;rounded=0;orthogonalLoop=1;jettySize=auto;html=1;entryX=0;entryY=0.5;entryDx=0;entryDy=0;" edge="1" parent="WIyWlLk6GJQsqaUBKTNV-1" source="9PnTqOo8Al7OSsSd0ex3-5" target="9PnTqOo8Al7OSsSd0ex3-6">
          <mxGeometry relative="1" as="geometry" />
        </mxCell>
        <mxCell id="9PnTqOo8Al7OSsSd0ex3-5" value="Generate random dics roll" style="rounded=0;whiteSpace=wrap;html=1;" vertex="1" parent="WIyWlLk6GJQsqaUBKTNV-1">
          <mxGeometry x="250" y="110" width="170" height="60" as="geometry" />
        </mxCell>
        <mxCell id="9PnTqOo8Al7OSsSd0ex3-12" style="edgeStyle=orthogonalEdgeStyle;rounded=0;orthogonalLoop=1;jettySize=auto;html=1;exitX=1;exitY=0.5;exitDx=0;exitDy=0;" edge="1" parent="WIyWlLk6GJQsqaUBKTNV-1" source="9PnTqOo8Al7OSsSd0ex3-6" target="9PnTqOo8Al7OSsSd0ex3-7">
          <mxGeometry relative="1" as="geometry" />
        </mxCell>
        <mxCell id="9PnTqOo8Al7OSsSd0ex3-6" value="display dics roll" style="rounded=0;whiteSpace=wrap;html=1;" vertex="1" parent="WIyWlLk6GJQsqaUBKTNV-1">
          <mxGeometry x="480" y="110" width="120" height="60" as="geometry" />
        </mxCell>
        <mxCell id="9PnTqOo8Al7OSsSd0ex3-13" style="edgeStyle=orthogonalEdgeStyle;rounded=0;orthogonalLoop=1;jettySize=auto;html=1;exitX=1;exitY=0.5;exitDx=0;exitDy=0;entryX=0;entryY=0.5;entryDx=0;entryDy=0;" edge="1" parent="WIyWlLk6GJQsqaUBKTNV-1" source="9PnTqOo8Al7OSsSd0ex3-7" target="9PnTqOo8Al7OSsSd0ex3-8">
          <mxGeometry relative="1" as="geometry" />
        </mxCell>
        <mxCell id="9PnTqOo8Al7OSsSd0ex3-14" style="edgeStyle=orthogonalEdgeStyle;rounded=0;orthogonalLoop=1;jettySize=auto;html=1;exitX=0.5;exitY=1;exitDx=0;exitDy=0;entryX=0.4;entryY=-0.003;entryDx=0;entryDy=0;entryPerimeter=0;" edge="1" parent="WIyWlLk6GJQsqaUBKTNV-1" source="9PnTqOo8Al7OSsSd0ex3-7" target="9PnTqOo8Al7OSsSd0ex3-28">
          <mxGeometry relative="1" as="geometry">
            <mxPoint x="740" y="240" as="targetPoint" />
          </mxGeometry>
        </mxCell>
        <mxCell id="9PnTqOo8Al7OSsSd0ex3-7" value="Is it a 1 ?&amp;nbsp;" style="rhombus;whiteSpace=wrap;html=1;" vertex="1" parent="WIyWlLk6GJQsqaUBKTNV-1">
          <mxGeometry x="690" y="100" width="80" height="80" as="geometry" />
        </mxCell>
        <mxCell id="9PnTqOo8Al7OSsSd0ex3-15" style="edgeStyle=orthogonalEdgeStyle;rounded=0;orthogonalLoop=1;jettySize=auto;html=1;exitX=1;exitY=0.5;exitDx=0;exitDy=0;entryX=0;entryY=0.5;entryDx=0;entryDy=0;" edge="1" parent="WIyWlLk6GJQsqaUBKTNV-1" source="9PnTqOo8Al7OSsSd0ex3-8" target="9PnTqOo8Al7OSsSd0ex3-9">
          <mxGeometry relative="1" as="geometry" />
        </mxCell>
        <mxCell id="9PnTqOo8Al7OSsSd0ex3-8" value="Add dics roll to current score" style="rounded=0;whiteSpace=wrap;html=1;" vertex="1" parent="WIyWlLk6GJQsqaUBKTNV-1">
          <mxGeometry x="860" y="110" width="120" height="60" as="geometry" />
        </mxCell>
        <mxCell id="9PnTqOo8Al7OSsSd0ex3-9" value="display new score" style="rounded=0;whiteSpace=wrap;html=1;" vertex="1" parent="WIyWlLk6GJQsqaUBKTNV-1">
          <mxGeometry x="1040" y="110" width="120" height="60" as="geometry" />
        </mxCell>
        <mxCell id="9PnTqOo8Al7OSsSd0ex3-18" value="User rolls dics" style="text;html=1;resizable=0;autosize=1;align=center;verticalAlign=middle;points=[];fillColor=none;strokeColor=none;rounded=0;fontSize=14;" vertex="1" parent="WIyWlLk6GJQsqaUBKTNV-1">
          <mxGeometry x="55" y="125" width="110" height="30" as="geometry" />
        </mxCell>
        <mxCell id="9PnTqOo8Al7OSsSd0ex3-24" value="user holds score" style="ellipse;whiteSpace=wrap;html=1;fontSize=14;" vertex="1" parent="WIyWlLk6GJQsqaUBKTNV-1">
          <mxGeometry x="50" y="270" width="120" height="80" as="geometry" />
        </mxCell>
        <mxCell id="9PnTqOo8Al7OSsSd0ex3-30" style="edgeStyle=orthogonalEdgeStyle;rounded=0;orthogonalLoop=1;jettySize=auto;html=1;exitX=1;exitY=0.5;exitDx=0;exitDy=0;entryX=0;entryY=0.5;entryDx=0;entryDy=0;fontSize=14;" edge="1" parent="WIyWlLk6GJQsqaUBKTNV-1" source="9PnTqOo8Al7OSsSd0ex3-25" target="9PnTqOo8Al7OSsSd0ex3-27">
          <mxGeometry relative="1" as="geometry" />
        </mxCell>
        <mxCell id="9PnTqOo8Al7OSsSd0ex3-25" value="Add Current Score to total score&amp;nbsp;" style="rounded=0;whiteSpace=wrap;html=1;fontSize=14;" vertex="1" parent="WIyWlLk6GJQsqaUBKTNV-1">
          <mxGeometry x="220" y="280" width="260" height="60" as="geometry" />
        </mxCell>
        <mxCell id="9PnTqOo8Al7OSsSd0ex3-29" style="edgeStyle=orthogonalEdgeStyle;rounded=0;orthogonalLoop=1;jettySize=auto;html=1;entryX=0;entryY=0.5;entryDx=0;entryDy=0;fontSize=14;" edge="1" parent="WIyWlLk6GJQsqaUBKTNV-1" source="9PnTqOo8Al7OSsSd0ex3-27" target="9PnTqOo8Al7OSsSd0ex3-28">
          <mxGeometry relative="1" as="geometry" />
        </mxCell>
        <mxCell id="9PnTqOo8Al7OSsSd0ex3-34" style="edgeStyle=orthogonalEdgeStyle;rounded=0;orthogonalLoop=1;jettySize=auto;html=1;exitX=0.5;exitY=1;exitDx=0;exitDy=0;fontSize=14;" edge="1" parent="WIyWlLk6GJQsqaUBKTNV-1" source="9PnTqOo8Al7OSsSd0ex3-27">
          <mxGeometry relative="1" as="geometry">
            <mxPoint x="585" y="440" as="targetPoint" />
          </mxGeometry>
        </mxCell>
        <mxCell id="9PnTqOo8Al7OSsSd0ex3-27" value="score &amp;gt;= 100" style="rhombus;whiteSpace=wrap;html=1;fontSize=14;" vertex="1" parent="WIyWlLk6GJQsqaUBKTNV-1">
          <mxGeometry x="530" y="270" width="110" height="80" as="geometry" />
        </mxCell>
        <mxCell id="9PnTqOo8Al7OSsSd0ex3-28" value="Switch Player" style="rounded=0;whiteSpace=wrap;html=1;fontSize=14;" vertex="1" parent="WIyWlLk6GJQsqaUBKTNV-1">
          <mxGeometry x="680" y="280" width="120" height="60" as="geometry" />
        </mxCell>
        <mxCell id="9PnTqOo8Al7OSsSd0ex3-31" value="No" style="text;html=1;resizable=0;autosize=1;align=center;verticalAlign=middle;points=[];fillColor=none;strokeColor=none;rounded=0;fontSize=14;" vertex="1" parent="WIyWlLk6GJQsqaUBKTNV-1">
          <mxGeometry x="780" y="105" width="40" height="30" as="geometry" />
        </mxCell>
        <mxCell id="9PnTqOo8Al7OSsSd0ex3-32" value="Yes" style="text;html=1;resizable=0;autosize=1;align=center;verticalAlign=middle;points=[];fillColor=none;strokeColor=none;rounded=0;fontSize=14;" vertex="1" parent="WIyWlLk6GJQsqaUBKTNV-1">
          <mxGeometry x="665" y="205" width="50" height="30" as="geometry" />
        </mxCell>
        <mxCell id="9PnTqOo8Al7OSsSd0ex3-33" value="No" style="text;html=1;resizable=0;autosize=1;align=center;verticalAlign=middle;points=[];fillColor=none;strokeColor=none;rounded=0;fontSize=14;" vertex="1" parent="WIyWlLk6GJQsqaUBKTNV-1">
          <mxGeometry x="630" y="275" width="40" height="30" as="geometry" />
        </mxCell>
        <mxCell id="9PnTqOo8Al7OSsSd0ex3-35" value="Yes" style="text;html=1;resizable=0;autosize=1;align=center;verticalAlign=middle;points=[];fillColor=none;strokeColor=none;rounded=0;fontSize=14;" vertex="1" parent="WIyWlLk6GJQsqaUBKTNV-1">
          <mxGeometry x="535" y="365" width="50" height="30" as="geometry" />
        </mxCell>
        <mxCell id="9PnTqOo8Al7OSsSd0ex3-36" value="Current Player Wins" style="rounded=0;whiteSpace=wrap;html=1;fontSize=14;" vertex="1" parent="WIyWlLk6GJQsqaUBKTNV-1">
          <mxGeometry x="515" y="440" width="165" height="60" as="geometry" />
        </mxCell>
        <mxCell id="9PnTqOo8Al7OSsSd0ex3-39" style="edgeStyle=orthogonalEdgeStyle;rounded=0;orthogonalLoop=1;jettySize=auto;html=1;exitX=1;exitY=0.5;exitDx=0;exitDy=0;entryX=0;entryY=0.5;entryDx=0;entryDy=0;fontSize=14;" edge="1" parent="WIyWlLk6GJQsqaUBKTNV-1" source="9PnTqOo8Al7OSsSd0ex3-37" target="9PnTqOo8Al7OSsSd0ex3-38">
          <mxGeometry relative="1" as="geometry" />
        </mxCell>
        <mxCell id="9PnTqOo8Al7OSsSd0ex3-37" value="User resets game" style="ellipse;whiteSpace=wrap;html=1;fontSize=14;" vertex="1" parent="WIyWlLk6GJQsqaUBKTNV-1">
          <mxGeometry x="50" y="600" width="140" height="80" as="geometry" />
        </mxCell>
        <mxCell id="9PnTqOo8Al7OSsSd0ex3-41" style="edgeStyle=orthogonalEdgeStyle;rounded=0;orthogonalLoop=1;jettySize=auto;html=1;exitX=1;exitY=0.5;exitDx=0;exitDy=0;entryX=0;entryY=0.5;entryDx=0;entryDy=0;fontSize=14;" edge="1" parent="WIyWlLk6GJQsqaUBKTNV-1" source="9PnTqOo8Al7OSsSd0ex3-38" target="9PnTqOo8Al7OSsSd0ex3-40">
          <mxGeometry relative="1" as="geometry" />
        </mxCell>
        <mxCell id="9PnTqOo8Al7OSsSd0ex3-38" value="set all score to 0" style="rounded=0;whiteSpace=wrap;html=1;fontSize=14;" vertex="1" parent="WIyWlLk6GJQsqaUBKTNV-1">
          <mxGeometry x="354" y="610" width="146" height="60" as="geometry" />
        </mxCell>
        <mxCell id="9PnTqOo8Al7OSsSd0ex3-40" value="Set Player 1 as starting player" style="rounded=0;whiteSpace=wrap;html=1;fontSize=14;" vertex="1" parent="WIyWlLk6GJQsqaUBKTNV-1">
          <mxGeometry x="650" y="610" width="210" height="60" as="geometry" />
        </mxCell>
      </root>
    </mxGraphModel>
  </diagram>
</mxfile>
